<svg xmlns="http://www.w3.org/2000/svg" xmlns:xlink="http://www.w3.org/1999/xlink" width="1600" zoomAndPan="magnify" viewBox="0 0 1200 449.999984" height="600" preserveAspectRatio="xMidYMid meet" version="1.0"><defs><g/><clipPath id="099abde532"><path d="M 86.46875 66.03125 L 236.6875 66.03125 L 236.6875 416.347656 L 86.46875 416.347656 Z M 86.46875 66.03125 " clip-rule="nonzero"/></clipPath><clipPath id="d5a79d0228"><path d="M 236.6875 333.851562 C 236.6875 379.402344 203.0625 416.328125 161.578125 416.328125 C 120.097656 416.328125 86.46875 379.402344 86.46875 333.851562 L 86.46875 148.503906 C 86.46875 102.957031 120.097656 66.03125 161.578125 66.03125 C 203.0625 66.03125 236.6875 102.957031 236.6875 148.503906 Z M 236.6875 333.851562 " clip-rule="nonzero"/></clipPath><clipPath id="b6ab5b942a"><path d="M 0.46875 0.03125 L 150.6875 0.03125 L 150.6875 350.347656 L 0.46875 350.347656 Z M 0.46875 0.03125 " clip-rule="nonzero"/></clipPath><clipPath id="a204402afb"><path d="M 150.6875 267.851562 C 150.6875 313.402344 117.0625 350.328125 75.578125 350.328125 C 34.097656 350.328125 0.46875 313.402344 0.46875 267.851562 L 0.46875 82.503906 C 0.46875 36.957031 34.097656 0.03125 75.578125 0.03125 C 117.0625 0.03125 150.6875 36.957031 150.6875 82.503906 Z M 150.6875 267.851562 " clip-rule="nonzero"/></clipPath><clipPath id="7371e4f685"><rect x="0" width="151" y="0" height="351"/></clipPath></defs><g fill="#2c3e37" fill-opacity="1"><g transform="translate(244.301266, 337.47102)"><g><path d="M 60.234375 -123.140625 L 60.234375 0 L 28.78125 0 L 28.78125 -272.9375 L 60.234375 -272.9375 L 60.234375 -172.71875 L 62.90625 -172.71875 C 67.695312 -183.289062 74.910156 -191.707031 84.546875 -197.96875 C 94.191406 -204.226562 107.054688 -207.359375 123.140625 -207.359375 C 144.109375 -207.359375 160.988281 -201.050781 173.78125 -188.4375 C 186.570312 -175.820312 192.96875 -156.363281 192.96875 -130.0625 L 192.96875 0 L 161.515625 0 L 161.515625 -127.9375 C 161.515625 -144.195312 157.316406 -156.789062 148.921875 -165.71875 C 140.523438 -174.644531 128.910156 -179.109375 114.078125 -179.109375 C 98.523438 -179.109375 85.660156 -174.242188 75.484375 -164.515625 C 65.316406 -154.785156 60.234375 -140.992188 60.234375 -123.140625 Z M 60.234375 -123.140625 "/></g></g></g><g fill="#2c3e37" fill-opacity="1"><g transform="translate(442.417111, 337.47102)"><g><path d="M 89.015625 4.796875 C 76.046875 4.796875 64.273438 2.332031 53.703125 -2.59375 C 43.128906 -7.53125 34.734375 -14.679688 28.515625 -24.046875 C 22.296875 -33.421875 19.1875 -44.773438 19.1875 -58.109375 C 19.1875 -69.835938 21.492188 -79.363281 26.109375 -86.6875 C 30.734375 -94.019531 36.910156 -99.773438 44.640625 -103.953125 C 52.367188 -108.128906 60.921875 -111.257812 70.296875 -113.34375 C 79.671875 -115.425781 89.113281 -117.09375 98.625 -118.34375 C 111.0625 -119.9375 121.164062 -121.15625 128.9375 -122 C 136.707031 -122.84375 142.390625 -124.285156 145.984375 -126.328125 C 149.585938 -128.378906 151.390625 -131.9375 151.390625 -137 L 151.390625 -138.0625 C 151.390625 -151.207031 147.8125 -161.421875 140.65625 -168.703125 C 133.507812 -175.992188 122.695312 -179.640625 108.21875 -179.640625 C 93.195312 -179.640625 81.421875 -176.351562 72.890625 -169.78125 C 64.367188 -163.207031 58.375 -156.1875 54.90625 -148.71875 L 25.046875 -159.390625 C 30.378906 -171.828125 37.507812 -181.53125 46.4375 -188.5 C 55.375 -195.476562 65.148438 -200.363281 75.765625 -203.15625 C 86.378906 -205.957031 96.835938 -207.359375 107.140625 -207.359375 C 113.722656 -207.359375 121.300781 -206.582031 129.875 -205.03125 C 138.445312 -203.476562 146.75 -200.300781 154.78125 -195.5 C 162.820312 -190.707031 169.507812 -183.46875 174.84375 -173.78125 C 180.175781 -164.09375 182.84375 -151.117188 182.84375 -134.859375 L 182.84375 0 L 151.390625 0 L 151.390625 -27.71875 L 149.796875 -27.71875 C 147.660156 -23.28125 144.101562 -18.523438 139.125 -13.453125 C 134.15625 -8.390625 127.535156 -4.082031 119.265625 -0.53125 C 111.003906 3.019531 100.921875 4.796875 89.015625 4.796875 Z M 93.8125 -23.453125 C 106.257812 -23.453125 116.769531 -25.894531 125.34375 -30.78125 C 133.914062 -35.664062 140.398438 -41.972656 144.796875 -49.703125 C 149.191406 -57.429688 151.390625 -65.5625 151.390625 -74.09375 L 151.390625 -102.875 C 150.054688 -101.28125 147.144531 -99.835938 142.65625 -98.546875 C 138.175781 -97.265625 133.023438 -96.15625 127.203125 -95.21875 C 121.378906 -94.28125 115.734375 -93.476562 110.265625 -92.8125 C 104.804688 -92.15625 100.390625 -91.601562 97.015625 -91.15625 C 88.847656 -90.09375 81.226562 -88.382812 74.15625 -86.03125 C 67.09375 -83.675781 61.40625 -80.164062 57.09375 -75.5 C 52.789062 -70.832031 50.640625 -64.5 50.640625 -56.5 C 50.640625 -45.570312 54.703125 -37.332031 62.828125 -31.78125 C 70.960938 -26.226562 81.289062 -23.453125 93.8125 -23.453125 Z M 93.8125 -23.453125 "/></g></g></g><g fill="#2c3e37" fill-opacity="1"><g transform="translate(630.404611, 337.47102)"><g><path d="M 60.234375 -123.140625 L 60.234375 0 L 28.78125 0 L 28.78125 -204.703125 L 59.171875 -204.703125 L 59.171875 -172.71875 L 61.84375 -172.71875 C 66.632812 -183.113281 73.914062 -191.484375 83.6875 -197.828125 C 93.457031 -204.179688 106.078125 -207.359375 121.546875 -207.359375 C 142.242188 -207.359375 158.96875 -201.003906 171.71875 -188.296875 C 184.46875 -175.597656 190.84375 -156.1875 190.84375 -130.0625 L 190.84375 0 L 159.390625 0 L 159.390625 -127.9375 C 159.390625 -144.019531 155.210938 -156.566406 146.859375 -165.578125 C 138.503906 -174.597656 127.046875 -179.109375 112.484375 -179.109375 C 97.460938 -179.109375 85 -174.242188 75.09375 -164.515625 C 65.1875 -154.785156 60.234375 -140.992188 60.234375 -123.140625 Z M 60.234375 -123.140625 "/></g></g></g><g fill="#2c3e37" fill-opacity="1"><g transform="translate(826.388191, 337.47102)"><g><path d="M 28.78125 -204.703125 L 60.234375 -204.703125 L 60.234375 14.921875 C 60.234375 33.847656 55.390625 48.882812 45.703125 60.03125 C 36.023438 71.1875 21.320312 76.765625 1.59375 76.765625 L -4.796875 76.765625 L -4.796875 47.4375 L 1.0625 47.4375 C 10.65625 47.4375 17.671875 44.613281 22.109375 38.96875 C 26.554688 33.332031 28.78125 25.316406 28.78125 14.921875 Z M 44.25 -238.8125 C 38.113281 -238.8125 32.847656 -240.898438 28.453125 -245.078125 C 24.054688 -249.253906 21.859375 -254.273438 21.859375 -260.140625 C 21.859375 -266.003906 24.054688 -271.019531 28.453125 -275.1875 C 32.847656 -279.363281 38.113281 -281.453125 44.25 -281.453125 C 50.375 -281.453125 55.632812 -279.363281 60.03125 -275.1875 C 64.4375 -271.019531 66.640625 -266.003906 66.640625 -260.140625 C 66.640625 -254.273438 64.4375 -249.253906 60.03125 -245.078125 C 55.632812 -240.898438 50.375 -238.8125 44.25 -238.8125 Z M 44.25 -238.8125 "/></g></g></g><g fill="#2c3e37" fill-opacity="1"><g transform="translate(891.768465, 337.47102)"><g><path d="M 111.9375 4.265625 C 93.457031 4.265625 77.265625 -0.128906 63.359375 -8.921875 C 49.460938 -17.722656 38.625 -30.03125 30.84375 -45.84375 C 23.070312 -61.65625 19.1875 -80.132812 19.1875 -101.28125 C 19.1875 -122.601562 23.070312 -141.21875 30.84375 -157.125 C 38.625 -173.03125 49.460938 -185.378906 63.359375 -194.171875 C 77.265625 -202.960938 93.457031 -207.359375 111.9375 -207.359375 C 130.425781 -207.359375 146.617188 -202.960938 160.515625 -194.171875 C 174.421875 -185.378906 185.257812 -173.03125 193.03125 -157.125 C 200.8125 -141.21875 204.703125 -122.601562 204.703125 -101.28125 C 204.703125 -80.132812 200.8125 -61.65625 193.03125 -45.84375 C 185.257812 -30.03125 174.421875 -17.722656 160.515625 -8.921875 C 146.617188 -0.128906 130.425781 4.265625 111.9375 4.265625 Z M 111.9375 -23.984375 C 125.976562 -23.984375 137.53125 -27.582031 146.59375 -34.78125 C 155.65625 -41.976562 162.363281 -51.441406 166.71875 -63.171875 C 171.070312 -74.898438 173.25 -87.601562 173.25 -101.28125 C 173.25 -114.96875 171.070312 -127.71875 166.71875 -139.53125 C 162.363281 -151.34375 155.65625 -160.890625 146.59375 -168.171875 C 137.53125 -175.460938 125.976562 -179.109375 111.9375 -179.109375 C 97.90625 -179.109375 86.359375 -175.460938 77.296875 -168.171875 C 68.234375 -160.890625 61.523438 -151.34375 57.171875 -139.53125 C 52.816406 -127.71875 50.640625 -114.96875 50.640625 -101.28125 C 50.640625 -87.601562 52.816406 -74.898438 57.171875 -63.171875 C 61.523438 -51.441406 68.234375 -41.976562 77.296875 -34.78125 C 86.359375 -27.582031 97.90625 -23.984375 111.9375 -23.984375 Z M 111.9375 -23.984375 "/></g></g></g><g clip-path="url(#099abde532)"><g clip-path="url(#d5a79d0228)"><g transform="matrix(1, 0, 0, 1, 86, 66)"><g clip-path="url(#7371e4f685)"><g clip-path="url(#b6ab5b942a)"><g clip-path="url(#a204402afb)"><path fill="#2c3e37" d="M 150.6875 0.03125 L 150.6875 350.347656 L 0.46875 350.347656 L 0.46875 0.03125 Z M 150.6875 0.03125 " fill-opacity="1" fill-rule="nonzero"/></g></g></g></g></g></g></svg>